# xmcd CD database file
#
# Track frame offsets:
#	150
#	32435
#	57145
#	73545
#	93930
#	121130
#	144060
#	168270
#	189715
#	212005
#	235670
#	254600
#
# Disc length: 3689 seconds
#
# Revision: 0
# Processed by: cddbd v1.5.2PL0 Copyright (c) Steve Scherf et al.
# Submitted via: CDex 1.40PlusFr
#
DISCID=990e670c
DTITLE=Jimmy Johnson - Tobacco Road
DYEAR=1977
DGENRE=Blues
TTITLE0=Long About Midnight
TTITLE1=Strange Things Happening
TTITLE2=Look On Yonder Wall
TTITLE3=I'm Crazy About My Baby
TTITLE4=Tobacco Road
TTITLE5=Breaking Up Somebody's Home
TTITLE6=Sweet Little Angel
TTITLE7=Three Times Chicago
TTITLE8=Boe Ties Riff
TTITLE9=Engine No. 9
TTITLE10=Midnight Hour
TTITLE11=Take Five
EXTD=YEAR: 1977 ID3G: 0
EXTT0=
EXTT1=
EXTT2=
EXTT3=
EXTT4=
EXTT5=
EXTT6=
EXTT7=
EXTT8=
EXTT9=
EXTT10=
EXTT11=
PLAYORDER=
